<svg xmlns="http://www.w3.org/2000/svg" viewBox="0 0 32 40" x="0px" y="0px"><title>Mobile</title><g data-name="Layer 2"><path d="M29.2,21.2,26,18.53V8.87A2.88,2.88,0,0,0,23.13,6H8.89A2.89,2.89,0,0,0,6,8.89v9.64L2.8,21.2A2.15,2.15,0,0,0,4.17,25H27.83a2.15,2.15,0,0,0,1.38-3.8ZM8,8.89A.89.89,0,0,1,8.89,8H23.13a.87.87,0,0,1,.87.87V18H8Zm20,14a.13.13,0,0,1-.14.1H4.17a.15.15,0,0,1-.1-.26L7.36,20H24.64l3.28,2.74A.13.13,0,0,1,28,22.9Z"/><path d="M21,10H19a1,1,0,0,0-.34,1.93l-1.36,1.36a1,1,0,1,0,1.41,1.41l1.36-1.36A1,1,0,0,0,22,13V11A1,1,0,0,0,21,10Z"/></g><text x="0" y="47" fill="#000000" font-size="5px" font-weight="bold" font-family="'Helvetica Neue', Helvetica, Arial-Unicode, Arial, Sans-serif">Created by Numeralia Vita Zein</text><text x="0" y="52" fill="#000000" font-size="5px" font-weight="bold" font-family="'Helvetica Neue', Helvetica, Arial-Unicode, Arial, Sans-serif">from the Noun Project</text></svg>