<svg xmlns="http://www.w3.org/2000/svg" version="1.1" viewBox="-5.0 -10.0 110.0 135.0">
 <path d="m50 1.5625c-26.734 0-48.438 21.703-48.438 48.438s21.703 48.438 48.438 48.438 48.438-21.703 48.438-48.438-21.703-48.438-48.438-48.438zm33.656 42.914-21.879-21.879c-3.0469-3.0469-8.0078-3.0469-11.055 0-3.043 3.0469-3.0508 7.9844-0.003906 11.051l8.5391 8.5391h-37.383c-4.3164 0-7.8125 3.4961-7.8125 7.8125s3.4961 7.8125 7.8125 7.8125h37.383l-8.5352 8.5352c-3.043 3.0469-3.0508 7.9844-0.003906 11.051 0 0 0.003906 0 0.003906 0.003906 1.5234 1.5234 3.5352 2.2852 5.5273 2.2852s4.0039-0.76172 5.5273-2.2852l21.84-21.844c1.1641-1.0391 4.7383-6.3633 0.039062-11.082z" fill-rule="evenodd"/>
<text x="0.0" y="117.5" font-size="5.0" font-weight="bold" font-family="Arbeit Regular, Helvetica, Arial-Unicode, Arial, Sans-serif" fill="#000000">Created by HAMEL KHALED</text><text x="0.0" y="122.5" font-size="5.0" font-weight="bold" font-family="Arbeit Regular, Helvetica, Arial-Unicode, Arial, Sans-serif" fill="#000000">from Noun Project</text></svg>